<svg xmlns="http://www.w3.org/2000/svg" id="Layer_1" viewBox="0 0 300 300" width="27" height="27"><circle cx="149.996" cy="156.072" r="28.197" data-original="#000000" class="active-path" data-old_color="#000000" fill="#FF6C00"/><path d="M149.996 0C67.157 0 .001 67.161.001 149.997S67.157 300 149.996 300s150.003-67.163 150.003-150.003S232.835 0 149.996 0zm78.824 171.799l-21.306 1.372a59.58 59.58 0 0 1-4.746 11.482l14.088 16.039-22.245 22.243-16.031-14.091a59.606 59.606 0 0 1-11.482 4.741l-1.377 21.311-31.458-.003-1.375-21.309a59.658 59.658 0 0 1-11.479-4.741l-16.034 14.091-22.243-22.25 14.088-16.031a59.686 59.686 0 0 1-4.746-11.482l-21.306-1.375v-31.458l21.306-1.375a59.85 59.85 0 0 1 4.746-11.479l-14.088-16.031 22.245-22.248 16.031 14.088a59.645 59.645 0 0 1 11.484-4.744l1.375-21.309h31.452l1.377 21.309a59.642 59.642 0 0 1 11.482 4.744l16.036-14.088 22.243 22.248-14.088 16.031a59.865 59.865 0 0 1 4.746 11.479l21.306 1.375-.001 31.461z" data-original="#000000" class="active-path" data-old_color="#000000" fill="#FF6C00"/></svg>