<svg xmlns="http://www.w3.org/2000/svg" id="Layer_1" viewBox="0 0 496.158 496.158" width="27" height="27"><path d="M496.158 248.085C496.158 111.064 385.088.003 248.082.003 111.07.003 0 111.063 0 248.085c0 137.002 111.07 248.07 248.083 248.07 137.005 0 248.075-111.068 248.075-248.07z" data-original="#E04F5F" class="active-path" data-old_color="#ff6c00" fill="#ff6c00"/><path d="M392.579 226.079h-225.5c-5.523 0-10 4.479-10 10v24c0 5.523 4.477 10 10 10h225.5c5.523 0 10-4.477 10-10v-24c0-5.521-4.477-10-10-10zm-265 0h-24c-5.523 0-10 4.479-10 10v24c0 5.523 4.477 10 10 10h24c5.523 0 10-4.477 10-10v-24c0-5.521-4.477-10-10-10zm265-69h-225.5c-5.523 0-10 4.479-10 10v24c0 5.523 4.477 10 10 10h225.5c5.523 0 10-4.477 10-10v-24c0-5.521-4.477-10-10-10zm-265 0h-24c-5.523 0-10 4.479-10 10v24c0 5.523 4.477 10 10 10h24c5.523 0 10-4.477 10-10v-24c0-5.521-4.477-10-10-10zm265 138h-225.5c-5.523 0-10 4.479-10 10v24c0 5.523 4.477 10 10 10h225.5c5.523 0 10-4.477 10-10v-24c0-5.521-4.477-10-10-10zm-265 0h-24c-5.523 0-10 4.479-10 10v24c0 5.523 4.477 10 10 10h24c5.523 0 10-4.477 10-10v-24c0-5.521-4.477-10-10-10z" data-original="#FFFFFF" data-old_color="#E9E5E2" fill="#efeeed"/></svg>