<svg xmlns="http://www.w3.org/2000/svg" xmlns:xlink="http://www.w3.org/1999/xlink"><symbol id="list" viewBox="0 0 496.158 496.158"><g>
	<path style="fill:#FF6C00" d="M496.158,248.085c0-137.021-111.07-248.082-248.076-248.082C111.07,0.003,0,111.063,0,248.085  c0,137.002,111.07,248.07,248.083,248.07C385.088,496.155,496.158,385.087,496.158,248.085z" data-original="#E04F5F" class="active-path" data-old_color="#ff6c00"/><g>
	<path style="fill:#EFEEED" d="M392.579,226.079h-225.5c-5.523,0-10,4.479-10,10v24c0,5.523,4.477,10,10,10h225.5   c5.523,0,10-4.477,10-10v-24C402.579,230.558,398.102,226.079,392.579,226.079z" data-original="#FFFFFF" class="" data-old_color="#E9E5E2"/>
	<path style="fill:#EFEEED" d="M127.579,226.079h-24c-5.523,0-10,4.479-10,10v24c0,5.523,4.477,10,10,10h24c5.523,0,10-4.477,10-10   v-24C137.579,230.558,133.102,226.079,127.579,226.079z" data-original="#FFFFFF" class="" data-old_color="#E9E5E2"/>
	<path style="fill:#EFEEED" d="M392.579,157.079h-225.5c-5.523,0-10,4.479-10,10v24c0,5.523,4.477,10,10,10h225.5   c5.523,0,10-4.477,10-10v-24C402.579,161.558,398.102,157.079,392.579,157.079z" data-original="#FFFFFF" class="" data-old_color="#E9E5E2"/>
	<path style="fill:#EFEEED" d="M127.579,157.079h-24c-5.523,0-10,4.479-10,10v24c0,5.523,4.477,10,10,10h24c5.523,0,10-4.477,10-10   v-24C137.579,161.558,133.102,157.079,127.579,157.079z" data-original="#FFFFFF" class="" data-old_color="#E9E5E2"/>
	<path style="fill:#EFEEED" d="M392.579,295.079h-225.5c-5.523,0-10,4.479-10,10v24c0,5.523,4.477,10,10,10h225.5   c5.523,0,10-4.477,10-10v-24C402.579,299.558,398.102,295.079,392.579,295.079z" data-original="#FFFFFF" class="" data-old_color="#E9E5E2"/>
	<path style="fill:#EFEEED" d="M127.579,295.079h-24c-5.523,0-10,4.479-10,10v24c0,5.523,4.477,10,10,10h24c5.523,0,10-4.477,10-10   v-24C137.579,299.558,133.102,295.079,127.579,295.079z" data-original="#FFFFFF" class="" data-old_color="#E9E5E2"/>
	</g></g>
</symbol><symbol id="plus" viewBox="0 0 510 510">
	<g><g>
	<g id="add-circle">
	<path d="M255,0C114.75,0,0,114.75,0,255s114.75,255,255,255s255-114.75,255-255S395.25,0,255,0z M382.5,280.5h-102v102h-51v-102    h-102v-51h102v-102h51v102h102V280.5z" data-original="#000000" class="active-path" data-old_color="#ff6c00" fill="#ff6c00"/>
	</g>
	</g></g>
</symbol><symbol id="flip" viewBox="0 0 49.499 49.499">
<g>
	<path style="fill:#ffffff;" d="M8.143,10.804C7.473,11.682,7,11.842,7,11.099V9.751c0-1.933-1.567-3.5-3.5-3.5S0,7.818,0,9.751v12
		c0,1.933,1.567,3.5,3.5,3.5h12c1.933,0,3.5-1.567,3.5-3.5s-1.567-3.5-3.5-3.5c0,0-0.579,0-1.294,0s-0.916-0.817-0.31-1.74
		c2.752-4.187,7.47-6.795,12.569-6.795c8.29,0,15.034,6.744,15.034,15.034c0,8.289-6.744,15.033-15.034,15.033c-2.209,0-4,1.791-4,4
		s1.791,4,4,4c12.701,0.001,23.034-10.332,23.034-23.032c0-12.701-10.333-23.034-23.034-23.034
		C19.204,1.716,12.445,5.167,8.143,10.804z"/>
</g>
</symbol><symbol id="next" viewBox="0 0 492.004 492.004">

<g>
	<path d="M484.14,226.886L306.46,49.202c-5.072-5.072-11.832-7.856-19.04-7.856c-7.216,0-13.972,2.788-19.044,7.856l-16.132,16.136    c-5.068,5.064-7.86,11.828-7.86,19.04c0,7.208,2.792,14.2,7.86,19.264L355.9,207.526H26.58C11.732,207.526,0,219.15,0,234.002    v22.812c0,14.852,11.732,27.648,26.58,27.648h330.496L252.248,388.926c-5.068,5.072-7.86,11.652-7.86,18.864    c0,7.204,2.792,13.88,7.86,18.948l16.132,16.084c5.072,5.072,11.828,7.836,19.044,7.836c7.208,0,13.968-2.8,19.04-7.872    l177.68-177.68c5.084-5.088,7.88-11.88,7.86-19.1C492.02,238.762,489.228,231.966,484.14,226.886z" fill="#FFFFFF"/>
</g>

</symbol><symbol id="previous" viewBox="0 0 492 492">

<g>
	<path d="M464.344,207.418l0.768,0.168H135.888l103.496-103.724c5.068-5.064,7.848-11.924,7.848-19.124    c0-7.2-2.78-14.012-7.848-19.088L223.28,49.538c-5.064-5.064-11.812-7.864-19.008-7.864c-7.2,0-13.952,2.78-19.016,7.844    L7.844,226.914C2.76,231.998-0.02,238.77,0,245.974c-0.02,7.244,2.76,14.02,7.844,19.096l177.412,177.412    c5.064,5.06,11.812,7.844,19.016,7.844c7.196,0,13.944-2.788,19.008-7.844l16.104-16.112c5.068-5.056,7.848-11.808,7.848-19.008    c0-7.196-2.78-13.592-7.848-18.652L134.72,284.406h329.992c14.828,0,27.288-12.78,27.288-27.6v-22.788    C492,219.198,479.172,207.418,464.344,207.418z" fill="#FFFFFF"/>
</g>

</symbol><symbol id="reset" viewBox="0 0 32.076 32.076">
<g>
	<path fill="#ffffff" d="M32.076,15.138l-7.152,9.341l-7.152-9.341h4.666c-0.451-4.397-4.178-7.842-8.695-7.842C8.922,7.296,5,11.218,5,16.038
		c0,4.82,3.922,8.742,8.742,8.742c1.381,0,2.5,1.119,2.5,2.5s-1.119,2.5-2.5,2.5C6.166,29.78,0,23.615,0,16.038
		S6.166,2.296,13.742,2.296c7.273,0,13.23,5.686,13.697,12.842H32.076z"/>
</g>
</symbol><symbol id="settings" viewBox="0 0 300 300"><g><g>
	<g>
		<g>
			<circle cx="149.996" cy="156.072" r="28.197" data-original="#000000" class="active-path" data-old_color="#000000" fill="#FF6C00"/>
			<path d="M149.996,0C67.157,0,0.001,67.161,0.001,149.997S67.157,300,149.996,300s150.003-67.163,150.003-150.003     S232.835,0,149.996,0z M228.82,171.799l-21.306,1.372c-1.193,4.02-2.783,7.866-4.746,11.482l14.088,16.039l-22.245,22.243     l-16.031-14.091c-3.618,1.961-7.464,3.551-11.482,4.741l-1.377,21.311l-31.458-0.003l-1.375-21.309     c-4.015-1.19-7.861-2.78-11.479-4.741l-16.034,14.091l-22.243-22.25l14.088-16.031c-1.963-3.618-3.553-7.464-4.746-11.482     l-21.306-1.375v-31.458l21.306-1.375c1.193-4.015,2.786-7.864,4.746-11.479l-14.088-16.031l22.245-22.248l16.031,14.088     c3.618-1.963,7.464-3.551,11.484-4.744l1.375-21.309h31.452l1.377,21.309c4.017,1.193,7.864,2.78,11.482,4.744l16.036-14.088     l22.243,22.248l-14.088,16.031c1.961,3.618,3.553,7.464,4.746,11.479l21.306,1.375L228.82,171.799z" data-original="#000000" class="active-path" data-old_color="#000000" fill="#FF6C00"/>
		</g>
	</g>
</g></g> </symbol></svg>